HIERARCHY
ROOT Hips
{
  OFFSET 0 0 0
  CHANNELS 6 Xposition Yposition Zposition Zrotation Yrotation Xrotation
  JOINT LeftThigh
  {
    OFFSET 8.409438 0 -5.917753
    CHANNELS 3 Zrotation Yrotation Xrotation
    JOINT LeftLeg
    {
      OFFSET 0 0 -42.358652
      CHANNELS 3 Zrotation Yrotation Xrotation
      JOINT LeftFoot
      {
        OFFSET 0 0 -39.357303
        CHANNELS 3 Zrotation Yrotation Xrotation
      }
    }
  }
  JOINT RightThigh
  {
    OFFSET -8.409438 0 -5.917753
    CHANNELS 3 Zrotation Yrotation Xrotation
    JOINT RightLeg
    {
      OFFSET 0 0 -42.358652
      CHANNELS 3 Zrotation Yrotation Xrotation
      JOINT RightFoot
      {
        OFFSET 0 0 -39.357303
        CHANNELS 3 Zrotation Yrotation Xrotation
      }
    }
  }
  JOINT SpineLow
  {
    OFFSET 0 0 4.719101
    CHANNELS 3 Zrotation Yrotation Xrotation
    JOINT SpineMid
    {
      OFFSET 0 0 12.899191
      CHANNELS 3 Zrotation Yrotation Xrotation
      JOINT Chest
      {
        OFFSET 0 0 12.899191
        CHANNELS 3 Zrotation Yrotation Xrotation
        JOINT LeftShoulder
        {
          OFFSET 7.550562 1.41573 9.438202
          CHANNELS 3 Zrotation Yrotation Xrotation
          JOINT LeftArm
          {
            OFFSET 9.155056 0 4.247191
            CHANNELS 3 Zrotation Yrotation Xrotation
            JOINT LeftForearm
            {
              OFFSET 0 0 25.771955
              CHANNELS 3 Zrotation Yrotation Xrotation
              JOINT LeftHand
              {
                OFFSET 0 0 25.197169
                CHANNELS 3 Zrotation Yrotation Xrotation
              }
            }
          }
        }
        JOINT RightShoulder
        {
          OFFSET -7.550562 1.41573 9.438202
          CHANNELS 3 Zrotation Yrotation Xrotation
          JOINT RightArm
          {
            OFFSET -9.155056 0 4.247191
            CHANNELS 3 Zrotation Yrotation Xrotation
            JOINT RightForearm
            {
              OFFSET 0 0 -25.771955
              CHANNELS 3 Zrotation Yrotation Xrotation
              JOINT RightHand
              {
                OFFSET 0 0 -25.197169
                CHANNELS 3 Zrotation Yrotation Xrotation
              }
            }
          }
        }
        JOINT Neck
        {
          OFFSET 0 0 15.101124
          CHANNELS 3 Zrotation Yrotation Xrotation
          JOINT Head
          {
            OFFSET 0 0 11.325843
            CHANNELS 3 Zrotation Yrotation Xrotation
            End Site
            {
              OFFSET 0 0 14.157303
            }
          }
        }
      }
    }
  }
}
MOTION
Frames: 17
Frame Time: 0.0
0.0  89.887642  0.0  25.883741  -23.640989  -134.062805  7.071501  -41.410955  -44.587441  -35.810815  12.845708  23.968213  9.865596  -1.002659  13.560353  -19.218227  16.421513  1.221729  21.071279  9.783298  38.982038  1.467359  3.931379  -0.793914  0.906007  2.120799  2.745788  2.720083  5.684369  7.601086  2.720083  5.684369  7.601086  -10.392451  29.934574  17.361031  -118.957835  55.516446  -69.370236  -32.707606  -9.887661  76.027347  83.275831  16.442306  -5.141404  6.899351  -4.900564  31.045151  114.971201  21.057445  61.764063  -12.326989  12.009461  -97.202176  104.506073  0.78128  -23.6758  12.426673  3.863494  15.741652  9.224145  3.221801  11.728957  
0.0  89.887642  0.0  26.805387  -25.148869  -134.867053  -2.686614  -45.997449  -35.039132  -32.837589  0.446771  21.022139  8.854653  -1.211512  12.944041  -16.675773  16.155507  2.590977  19.838682  9.773728  38.477206  1.260509  4.04667  -0.909604  1.446463  2.090369  2.7643  4.196105  5.537242  7.694761  4.196104  5.537242  7.69476  -12.303199  29.283878  17.68629  -118.537364  54.685756  -70.582693  -32.769422  -9.661682  76.345308  82.917312  16.600799  -4.666141  4.537192  -5.397893  31.3682  114.673319  21.193415  61.195267  -14.617447  13.160807  -97.056976  104.787776  0.911752  -24.536524  11.503633  3.640447  16.096971  8.53589  3.037107  12.005203  
0.0  89.887642  0.0  27.616669  -25.31833  -135.455065  -23.784123  -50.524274  -18.995464  -17.352873  -8.458123  19.093069  7.767124  -2.130015  12.294128  -16.555957  17.325506  2.888996  19.511646  9.717337  38.117558  1.436597  4.010219  -0.939335  1.688306  2.229622  2.776181  4.876061  5.887577  7.759145  4.876061  5.887577  7.759145  -13.500233  28.214902  17.939561  -118.858221  53.388487  -72.516183  -32.444429  -9.686759  76.800787  82.1105  16.670374  -4.47155  2.640024  -6.127504  31.198303  114.08465  21.257814  60.527576  -16.895655  15.160989  -97.007566  104.527812  1.795732  -25.748125  11.041773  3.31323  16.314188  8.197455  2.783135  12.177118  
0.0  89.887642  0.0  27.655641  -24.826564  -135.841313  -29.563293  -57.999717  -18.311454  -8.654576  -6.549089  19.591993  9.416363  -0.469464  10.104979  -17.48716  18.972062  2.557965  19.726859  9.447712  38.343638  2.145947  3.601971  -0.809393  1.648163  2.356397  2.793954  4.783998  6.236749  7.815375  4.783998  6.236749  7.815375  -13.689768  27.002531  18.35765  -119.789085  51.737974  -75.018505  -32.149637  -9.251551  77.466172  81.35131  16.65879  -4.593469  1.337697  -6.86563  30.671631  113.615805  21.051777  60.052017  -19.214589  17.210722  -97.268707  103.812778  3.286314  -27.194363  11.105785  2.949048  16.382404  8.25546  2.512674  12.23534  
0.0  89.887642  0.0  25.91195  -24.084948  -134.366061  -25.184602  -58.289557  -24.240826  2.801311  -7.430632  18.206322  6.235892  -2.69419  9.846402  -18.371018  18.728947  1.575822  19.740578  8.97082  39.246509  2.424174  3.027127  -0.551363  1.295609  2.280364  2.672857  3.798775  6.078768  7.445461  3.798775  6.078768  7.445461  -13.096734  26.178752  18.273816  -121.584368  51.256761  -76.674919  -32.850393  -9.459081  77.414535  81.093085  16.573907  -4.571257  0.728873  -7.506335  29.499836  112.93286  20.367125  59.880506  -21.13169  18.95533  -97.568166  102.848967  4.637538  -28.424807  11.417032  2.730399  16.189189  8.495891  2.353245  12.093644  
0.0  89.887642  0.0  24.436787  -24.274042  -132.894344  -1.334585  -57.512296  -46.45008  1.557522  -1.433563  22.014259  3.696491  -3.826845  9.682178  -17.577841  16.919326  1.067826  20.363489  8.184852  40.55787  1.224697  2.833137  -0.481367  0.972809  2.095809  2.552937  2.883607  5.617355  7.077139  2.883607  5.617355  7.077139  -11.808684  26.466193  17.881359  -122.43605  50.955519  -77.835502  -33.56542  -8.893462  78.095089  81.298355  16.358188  -4.270082  1.101003  -7.888791  27.917335  111.937761  19.336694  60.014399  -22.807178  20.048208  -98.148574  100.847544  4.911419  -31.27456  11.958065  2.694794  15.582886  8.905056  2.32893  11.637615  
0.0  89.887642  0.0  23.47871  -24.127119  -132.552708  16.908847  -49.312355  -60.188448  -8.940209  6.801025  24.934659  6.574006  -5.353049  9.850715  -17.075065  14.659059  2.095046  21.291868  8.193178  41.459729  -0.639111  3.319787  -0.614178  0.610436  2.025218  2.637824  1.891397  5.461028  7.276229  1.891397  5.461028  7.276229  -9.833202  26.946858  17.264303  -122.704439  50.782878  -77.761782  -33.596786  -8.392878  78.404198  81.622352  16.323352  -3.997178  2.371388  -7.984949  26.292246  110.819594  18.553758  60.101249  -23.193192  19.852021  -99.240903  99.566987  3.955217  -34.57888  12.68753  2.582356  14.522356  9.459027  2.240978  10.841896  
0.0  89.887642  0.0  23.23388  -23.995298  -132.753314  30.964192  -35.792125  -70.6726  -26.641185  16.993798  27.28911  10.26424  -4.856045  10.462267  -17.265163  13.344752  2.806972  22.367284  8.485848  42.01182  -2.361609  4.072294  -0.753901  0.348973  2.005309  2.837045  1.190311  5.431477  7.799814  1.190311  5.431477  7.799815  -8.441023  27.340123  16.181347  -122.95758  50.309074  -77.542813  -32.798703  -8.419141  78.489487  81.750397  16.558576  -3.912592  3.98449  -7.280833  25.119753  109.718307  18.618618  59.929352  -22.235296  18.683821  -100.08387  100.021743  3.191075  -36.924232  13.170542  2.668143  13.346214  9.823432  2.291344  9.955858  
0.0  89.887642  0.0  23.214062  -23.765511  -132.421959  36.229423  -26.806688  -73.273692  -38.084097  26.144798  28.33617  12.173021  -4.792673  10.757763  -19.261536  13.054772  2.492786  22.861549  9.907462  42.146435  -2.571403  4.915688  -1.245523  0.025266  1.968381  2.922632  0.307643  5.368258  8.007044  0.307643  5.368258  8.007044  -7.324979  28.247223  14.358866  -122.540059  51.214882  -77.465938  -32.460313  -8.331114  78.419129  81.975602  16.782219  -3.212273  6.04447  -5.967925  24.487484  108.817067  19.012867  59.638175  -21.507157  17.459775  -100.643793  101.272458  3.024919  -38.427611  13.726977  3.153203  12.639053  10.232621  2.651744  9.411697  
0.0  89.887642  0.0  23.659024  -24.346303  -132.067471  38.15004  -24.968452  -77.558234  -39.455639  36.181422  33.835138  12.616711  -3.854887  10.386398  -20.153876  13.060082  2.202003  21.64125  12.359345  41.546589  -0.471724  5.068996  -1.572744  -0.120772  1.992788  2.980161  -0.083941  5.452444  8.153054  -0.083941  5.452444  8.153054  -6.503701  28.635791  12.376372  -120.77701  51.831172  -76.081439  -31.766071  -8.159521  77.599468  81.859612  17.385667  -1.841049  7.873122  -5.009665  23.841967  108.252614  19.615571  59.19396  -21.74201  16.990491  -100.881265  102.42352  3.142229  -39.09107  14.131289  3.547665  12.127501  10.529591  2.944403  9.016365  
0.0  89.887642  0.0  24.112838  -24.908847  -131.714089  42.573795  -29.897543  -87.614294  -27.724158  51.458682  44.247161  11.38051  -4.006979  10.172258  -19.857821  13.585866  1.816194  18.761877  14.840817  40.493203  3.197458  4.672297  -1.506955  -0.005127  2.069257  2.992048  0.242814  5.646761  8.196444  0.242814  5.646761  8.196444  -6.577011  28.225962  11.477301  -119.683398  50.940166  -74.709197  -31.056422  -6.745464  76.407526  83.024408  18.074398  0.445934  8.137104  -4.92744  23.444154  107.821044  20.139351  58.683151  -22.460813  17.127523  -100.694835  103.19818  3.289593  -39.332374  13.692179  3.586922  11.98724  10.200063  2.961853  8.912393  
0.0  89.887642  0.0  23.803908  -24.71098  -130.991696  41.424771  -37.570595  -91.647201  -6.886316  58.342989  59.154135  11.997589  -3.827772  9.706283  -18.720598  14.11078  1.575331  15.796095  15.603588  39.871554  5.187964  4.057768  -1.184833  0.209958  2.029138  2.835834  0.812905  5.512941  7.785738  0.812905  5.512941  7.785738  -7.632752  28.042979  11.911685  -119.669996  50.143759  -74.454352  -33.991423  -3.213825  75.256185  87.55062  19.177007  4.594031  6.47391  -5.199557  23.988736  107.698068  20.117257  58.285084  -23.453057  17.393623  -100.265617  103.857849  3.611357  -39.76188  12.458978  3.518007  12.738501  9.272717  2.901105  9.483803  
0.0  89.887642  0.0  23.152221  -24.502105  -130.518264  40.710867  -38.649095  -93.209643  8.742913  61.002043  74.035457  14.27496  -2.550338  9.455142  -16.715892  13.960286  1.947647  15.394104  13.922508  40.530325  3.825969  3.473533  -0.841555  0.510026  1.849114  2.605435  1.594412  4.992325  7.173001  1.594412  4.992325  7.173  -8.637899  28.073247  13.474913  -120.593976  49.186786  -75.247007  -35.840647  0.286021  74.847531  90.172384  18.629252  5.838765  3.790366  -5.354944  25.177986  107.744962  19.692764  58.028576  -24.227297  17.786244  -99.735633  104.272426  4.27687  -40.284117  10.998462  3.529066  14.032309  8.170262  2.902245  10.461403  
0.0  89.887642  0.0  22.570408  -24.59701  -129.821755  44.371833  -39.445194  -95.524122  28.616855  63.1046  91.927691  15.802116  -2.479058  9.408594  -14.720743  13.313687  1.978625  16.497101  11.098963  41.317933  1.712528  2.908883  -0.536495  0.807276  1.582096  2.289738  2.357195  4.24298  6.318863  2.357195  4.24298  6.318863  -8.992783  28.075512  15.756288  -122.986165  47.845249  -77.352321  -34.72792  0.625561  76.016391  88.173645  17.653062  3.981856  1.088515  -5.039126  26.43077  107.709608  19.225435  57.853763  -24.18149  17.987715  -99.339135  104.700486  4.92991  -40.645983  9.791189  3.718366  15.35515  7.252723  3.037957  11.456232  
0.0  89.887642  0.0  21.924093  -24.658227  -128.58843  48.517346  -41.629973  -96.189145  47.389636  62.76069  108.266973  16.036297  -2.05388  8.494521  -13.431808  12.55872  1.156653  17.494322  8.483062  42.051832  0.196976  2.523257  -0.328891  1.038228  1.285755  1.973547  2.94311  3.42628  5.453098  2.94311  3.42628  5.453098  -9.435634  28.043718  17.492924  -126.250413  47.287702  -80.330366  -33.414472  -0.795199  78.592596  85.01881  17.474688  1.478417  -1.137455  -4.255402  27.14311  107.409099  19.038463  57.662952  -23.283488  17.63143  -99.200349  105.252812  5.211757  -40.806151  8.772992  4.047701  16.283677  6.474453  3.273042  12.152532  
0.0  89.887642  0.0  21.461292  -24.64983  -127.194429  48.059709  -44.909132  -93.833232  60.954072  58.881973  119.079187  14.469606  -1.780659  7.150246  -12.351596  12.043157  -0.243818  17.377316  6.715705  42.89985  -0.84762  2.387034  -0.188988  1.14335  1.117906  1.729735  3.205364  2.971302  4.782694  3.205364  2.971302  4.782694  -9.398283  27.532587  18.307861  -129.538825  47.342786  -83.235735  -32.41477  -2.473381  81.187561  82.284084  17.793067  -0.241367  -2.073265  -3.867519  27.103117  106.931875  19.015529  57.464685  -21.10693  16.200202  -98.898144  106.432437  5.02092  -40.288534  8.220031  4.158097  16.585993  6.054577  3.345251  12.380751  
0.0  89.887642  0.0  21.247739  -24.748777  -125.411537  44.841607  -45.294787  -89.666858  69.112273  55.664885  126.820535  12.695683  -1.445011  5.618102  -11.871382  11.672053  -2.120925  16.680956  6.223696  43.212351  -1.379169  2.328697  0.098155  1.125619  1.065633  1.475746  3.14228  2.842122  4.084743  3.14228  2.842122  4.084742  -8.815079  26.698283  18.452476  -133.725426  48.023414  -84.746732  -32.266967  -5.314976  81.55438  80.926404  17.941795  -0.401894  -1.650679  -3.880795  26.613337  106.112872  19.102758  57.109725  -19.390106  14.773822  -98.726487  107.081826  5.430199  -40.565787  8.193077  4.069073  16.448947  6.037725  3.275793  12.279582  
